# xmcd
#
# Track frame offsets:
#	150
#	21221
#	43053
#	60841
#	76233
#	108308
#	130198
#	159017
#	188186
#	227880
#
# Disc length: 3416 seconds
#
# Revision: 1
# Processed by: cddbd v1.5.1PL2 Copyright (c) Steve Scherf et al.
# Submitted via: EasyCDDAExtractor 9.0.0.1
#
DISCID=700d560a
DTITLE=Saxon - The Mayfair Glasgow 07-04-90 Disc 1
DYEAR=1990
DGENRE=Hard Rock
TTITLE0=Intro - Heavy Metal Thunder
TTITLE1=Rock and Roll Gypsy
TTITLE2=And The Bands Played On
TTITLE3=20 000 Ft
TTITLE4=Solid Ball Of Rock
TTITLE5=747 (Strangers In The Night)
TTITLE6=Power And The Glory
TTITLE7=Crusader
TTITLE8=See The Light Shinning
TTITLE9=Frozen Rainbow
EXTD=
EXTT0=
EXTT1=
EXTT2=
EXTT3=
EXTT4=
EXTT5=
EXTT6=
EXTT7=
EXTT8=
EXTT9=
PLAYORDER=
